<!-- Generated by IcoMoon.io -->
<svg version="1.1" xmlns="http://www.w3.org/2000/svg" width="1116" height="1024" viewBox="0 0 1116 1024">
<g id="icomoon-ignore">
</g>
<path fill="#000" d="M827.312 1.308c-20.323 3.314-37.332 10.641-54.34 23.55-35.587 26.778-57.48 73.267-54.166 114.698 1.221 15.002 4.361 27.563 14.741 58.44 11.339 33.755 13.258 41.344 13.258 54.514 0.087 14.653-4.536 32.709-12.822 49.717-3.227 6.716-4.884 8.984-11.513 15.351-4.187 4.012-11.601 10.118-16.398 13.432-29.307 20.149-35.413 25.469-44.92 39.25-3.402 4.972-6.716 9.42-7.24 9.856-0.611 0.436-5.757 2.617-11.513 4.797-23.027 8.897-37.68 21.282-56.782 47.886-8.81 12.211-18.491 22.242-37.855 39.163-7.937 6.891-23.725 21.631-35.064 32.796-29.045 28.26-39.425 36.459-64.807 50.677-7.152 4.099-15.177 8.722-17.619 10.292-2.529 1.657-4.623 2.791-4.623 2.617s0.611-1.744 1.308-3.402c1.919-4.536 1.657-5.059-1.657-3.663-1.57 0.698-9.333 2.442-17.183 3.925-16.136 2.966-25.207 5.408-29.394 8.025-1.57 0.959-4.797 4.099-7.152 6.891-4.884 5.844-13.694 13.956-18.579 17.096-1.919 1.134-3.14 2.355-2.878 2.617 0.174 0.262-0.611 1.57-1.919 3.053-3.14 3.227-9.595 4.448-35.325 6.28-19.015 1.396-28.958 2.878-36.372 5.321-2.181 0.698-10.38 2.093-18.317 3.053-37.244 4.71-56.957 9.158-73.965 16.66l-5.844 2.529 5.67-5.146c3.14-2.878 5.931-5.233 6.367-5.321 0.349 0 0.611-0.349 0.611-0.698 0-1.483-49.717 7.763-65.068 12.124-4.972 1.396-14.392 3.14-21.021 3.838-40.995 4.536-70.738 13.345-89.055 26.341-12.735 8.984-18.317 22.678-14.653 35.587 3.053 10.467 13.694 17.357 32.796 21.457 9.507 2.006 24.074 2.442 72.831 1.919 8.199-0.087 40.384-0.087 71.523-0.087 31.226 0 70.215-0.087 86.787-0.174 24.684-0.174 35.849 0.262 62.365 2.093 17.794 1.221 39.512 2.529 48.409 2.878s14.741 0.785 13.083 0.959c-8.373 0.611-28.522 4.099-37.332 6.367-25.382 6.542-46.839 19.887-57.131 35.5-5.582 8.373-6.978 13.52-6.542 22.852 0.349 6.978 0.698 8.461 4.012 15.002 6.367 12.735 16.921 22.242 29.83 26.952 5.059 1.832 7.065 2.093 18.317 2.006 9.769 0 14.043-0.436 18.927-1.744l6.28-1.744-0.523 5.495c-0.611 6.28 0.611 8.897 5.233 11.252 6.629 3.489 25.905 0.523 46.403-6.978 14.043-5.233 34.191-15.526 40.559-20.759 8.984-7.414 13.258-10.118 25.993-16.136 23.027-10.816 25.993-12.386 36.372-19.015 25.469-16.398 31.924-17.357 58.963-9.333 22.591 6.803 37.419 10.031 57.916 12.473 9.943 1.221 36.808 1.483 49.717 0.611l8.722-0.611-3.925 1.657c-2.181 0.959-4.536 2.093-5.233 2.442-2.181 1.308-4.448 12.124-4.099 19.364 0.785 14.13 3.402 32.534 6.716 46.926 5.321 22.765 5.582 27.214 3.489 60.795-2.791 46.141-2.355 54.951 3.227 61.58 3.663 4.361 8.286 6.018 16.834 6.018 8.461 0 16.485-1.657 35.849-7.24 16.485-4.797 20.323-5.495 36.547-6.629 6.978-0.523 14.741-1.483 17.27-2.093 5.408-1.483 5.321-2.006 2.791 10.728-3.14 15.787-2.093 23.201 4.012 29.307 5.059 5.059 9.158 5.757 15.7 2.529 3.489-1.744 6.018-3.838 8.81-7.501 5.582-7.152 9.769-9.071 19.451-8.897 9.333 0.174 15.7 1.57 34.889 7.588 26.865 8.461 41.518 11.513 58.876 12.473 22.852 1.134 42.652-3.576 58.963-14.13l6.28-4.099-4.71-1.919c-8.984-3.663-17.794-11.252-20.497-17.619-1.57-3.751-1.57-10.205 0.087-13.345 1.832-3.663 5.582-6.455 14.915-11.165 9.42-4.71 12.211-6.891 13.083-10.292 1.657-6.542-6.542-6.803-30.615-0.959-29.133 6.978-35.325 7.327-41.257 2.529-1.744-1.483-4.012-3.925-4.972-5.582-2.442-4.099-2.268-12.473 0.349-20.149 3.489-10.292 1.57-12.037-9.246-8.548-9.42 3.053-18.491 8.112-28.173 15.7-14.13 11.077-19.364 14.566-26.429 17.881-11.513 5.321-18.927 3.925-23.812-4.448-2.268-3.838-2.442-4.972-3.576-23.376-1.483-23.027-1.047-39.25 1.483-56.346 2.617-16.921 2.093-27.824-1.657-42.652-5.321-20.323-5.408-21.719-5.931-56.346l-0.349-32.273 10.728-6.455c15.351-9.246 46.577-30.005 57.829-38.465 15.787-11.862 28.958-23.201 40.995-35.325 20.061-20.061 31.749-36.372 43.96-61.492 17.27-35.587 28.958-70.215 34.54-102.487 3.227-19.189 4.099-29.133 4.187-48.845 0.174-41.518-8.199-77.28-26.341-113.128-7.937-15.7-14.043-25.295-27.563-43.437-13.258-17.794-14.915-20.323-19.015-28.435-5.67-11.252-7.152-17.706-7.065-30.441 0-13.258 1.57-20.585 8.025-38.291l4.187-11.165 16.049 0.087c20.236 0.174 26.865-0.872 40.646-6.716 12.56-5.233 19.625-7.065 43.524-11.077 21.37-3.663 29.133-5.495 38.378-9.071 6.106-2.355 6.978-2.529 9.158-1.396 3.576 1.832 4.71 0.523 3.227-3.838-3.402-9.856-12.124-19.8-21.631-24.597-11.252-5.67-23.986-8.897-53.555-13.52-25.905-4.012-35.849-6.106-46.577-9.595-10.205-3.314-16.311-6.542-22.155-11.688l-4.012-3.576-0.262 2.878c-0.262 2.529-0.523 2.093-3.053-4.536-10.38-27.301-34.628-53.381-63.062-67.598-10.554-5.233-22.678-9.595-32.709-11.775-11.601-2.442-30.354-3.053-40.995-1.308zM1050.429 135.806c5.146 0.262 9.333 0.872 9.333 1.308 0 0.872-52.944 0-65.853-1.047-10.118-0.785 43.263-1.134 56.521-0.262zM387.358 622.076c-6.803 15.177-8.112 32.011-3.402 43.437 2.704 6.542 0.698 4.536-2.617-2.617-2.529-5.582-3.925-20.061-1.919-20.061 0.872 0 0.872-0.262 0.087-1.221-1.657-2.006 4.099-17.532 8.897-23.899 1.57-2.093 1.308-0.959-1.047 4.361zM232.886 639.607c0 0.174-4.972 4.71-11.077 9.943-6.193 5.321-14.305 12.735-18.142 16.485-3.751 3.838-5.67 5.321-4.187 3.402 4.274-5.408 15.526-16.136 24.684-23.463 8.199-6.542 8.722-6.891 8.722-6.367zM133.277 708.427c1.134 1.744 3.402 4.099 5.059 5.059 4.274 2.704 3.663 3.227-0.698 0.611-5.408-3.14-7.676-6.803-7.588-12.298l0.174-4.448 0.523 3.925c0.349 2.181 1.483 5.408 2.529 7.152zM202.794 712.526c2.878 1.483 4.274 2.529 3.053 2.181-3.751-0.959-10.205-4.797-12.822-7.588l-2.442-2.704 3.489 2.704c1.919 1.483 5.844 3.925 8.722 5.408zM790.155 768.087c-1.57 2.878-1.744 4.536-1.396 11.252 0.349 6.542 1.308 10.467 5.408 23.114 5.931 18.142 6.716 24.335 4.361 36.721-1.047 5.582-1.57 12.211-1.483 20.41 0.087 12.735 1.047 19.451 6.193 43.96 2.442 11.513 5.059 30.354 4.274 31.051-0.872 0.872-27.126 3.14-31.051 2.704-5.67-0.698-9.42-2.529-10.205-4.972-0.523-1.483-1.134-1.744-3.314-1.308-1.57 0.262-8.286 0.698-15.090 1.047l-12.211 0.611-1.134-3.838c-0.611-2.181-1.134-7.501-1.047-12.124 0.087-8.373 1.483-15.7 7.065-36.634 3.838-14.392 4.361-21.021 4.71-57.567 0.262-17.968 0.698-34.191 1.134-36.11 0.698-3.227 0.872-3.402 8.548-6.106 9.507-3.402 32.97-13.432 35.064-15.002 2.181-1.57 2.181-1.134 0.174 2.791z"></path>
</svg>
